<svg width="24" height="24" viewBox="0 0 24 24" fill="none" xmlns="http://www.w3.org/2000/svg">
<path d="M21.8 2.3C21.7 2.1 21.4 2 21.1 2.1C20.4 2.5 19.9 3.2 19.4 3.8V1.6C19.5 1.2 19.2 1 19 1C18.7 1 18.5 1.2 18.5 1.5V3.8C18 3.2 17.4 2.5 16.6 2.1C16.4 2 16.1 2.1 15.9 2.3C15.8 2.5 15.9 2.8 16.1 3C16.7 3.3 16.8 3.3 17.1 3.8H16.9V6.8H20.9V3.7H20.5C20.9 3.2 21 3.2 21.5 2.9C21.9 2.8 22 2.5 21.8 2.3Z" fill="white"/>
<path d="M2.09999 21.3C2.19999 21.5 2.49999 21.6 2.79999 21.5C3.49999 21.1 3.99999 20.4 4.49999 19.8V22C4.49999 22.3 4.69999 22.5 4.99999 22.5C5.29999 22.5 5.49999 22.3 5.49999 22V19.7C5.99999 20.3 6.59999 21 7.39999 21.4C7.59999 21.5 7.89999 21.4 8.09999 21.2C8.19999 21 8.09999 20.7 7.89999 20.5C7.29999 20.2 7.19999 20.2 6.89999 19.7H7.09999V16.7H3.09999V19.8H3.49999C3.09999 20.3 2.99999 20.3 2.49999 20.6C1.99999 20.7 1.89999 21 2.09999 21.3Z" fill="white"/>
<path d="M16.9 18.8H13.9C12.2 18.8 10.9 17.5 10.9 15.8V7.79999C10.9 7.29999 10.5 6.79999 9.89999 6.79999H6.89999C6.39999 6.79999 5.89999 7.19999 5.89999 7.79999V15.8H3.89999V7.79999C3.89999 6.09999 5.19999 4.79999 6.89999 4.79999H9.89999C11.6 4.79999 12.9 6.09999 12.9 7.79999V15.8C12.9 16.3 13.3 16.8 13.9 16.8H16.9C17.4 16.8 17.9 16.4 17.9 15.8V7.79999H19.9V15.8C19.9 17.4 18.6 18.8 16.9 18.8Z" fill="white"/>
</svg>
