<svg width="24" height="24" viewBox="0 0 24 24" fill="none" xmlns="http://www.w3.org/2000/svg">
<path d="M12 7C11.4 7 11 6.7 11 6.25V1.75C11 1.3 11.4 1 12 1C12.6 1 13 1.3 13 1.75V6.25C13 6.7 12.5 7 12 7Z" fill="white"/>
<path d="M11.9 23C11.3 23 10.9 22.6 10.9 22V17C10.9 16.4 11.3 16 11.9 16C12.5 16 12.9 16.4 12.9 17V22C12.9 22.5 12.5 23 11.9 23Z" fill="white"/>
<path d="M11.8 17.8C9.50001 17.8 7.60001 15.9 7.60001 13.6C7.60001 11.3 9.50001 9.39999 11.8 9.39999C14.1 9.39999 16 11.3 16 13.6C16 15.9 14.1 17.8 11.8 17.8ZM11.8 11.4C10.6 11.4 9.60001 12.4 9.60001 13.6C9.60001 14.8 10.6 15.8 11.8 15.8C13 15.8 14 14.8 14 13.6C14 12.4 13 11.4 11.8 11.4Z" fill="white"/>
<path d="M9.6 11.6C9.3 11.6 9.1 11.5 8.9 11.3L4.3 6.7C3.9 6.3 3.9 5.7 4.3 5.3C4.7 4.9 5.3 4.9 5.7 5.3L10.3 9.9C10.7 10.3 10.7 10.9 10.3 11.3C10.1 11.5 9.8 11.6 9.6 11.6Z" fill="white"/>
</svg>
