<svg width="24" height="24" viewBox="0 0 24 24" fill="none" xmlns="http://www.w3.org/2000/svg">
<g>
<path d="M4.3 6.6C4.3 3.6 5.9 2 9 2C9.8 2 10.6 2.1 11.3 2.3V4.6C10.6 4.4 10.1 4.4 9.6 4.4C8 4.4 7.3 5.3 7.3 7V8.3H10.6V10.5H7.3V22H4.3V10.5H2V8.3H4.3V6.6Z" fill="white"/>
<path d="M17.2 17.5L18.7 20.4H16.4L15.7 19L15 20.4H13L14.5 17.8L13.1 15.1H15.4L15.9 16.3L16.5 15.1H18.4L17.2 17.5Z" fill="white"/>
<path d="M12 22.8C8.1 18 10.3 13.2 12 11.3L13.5 12.6L12.8 12L13.5 12.7C13.3 12.9 9.8 16.9 13.5 21.6L12 22.8Z" fill="white"/>
<path d="M19.8 22.9L18.3 21.6C18.5 21.4 22 17.4 18.3 12.7L19.9 11.4C23.7 16.2 21.5 21 19.8 22.9Z" fill="white"/>
</g>
<defs>
<clipPath id="clip0">
<rect x="2" y="2" width="20" height="20.9" fill="white"/>
</clipPath>
</defs>
</svg>
