<svg width="24" height="24" viewBox="0 0 24 24" fill="none" xmlns="http://www.w3.org/2000/svg">
<g clip-path="url(#clip0)">
<path d="M12 4C15.9 4 19 7.1 19 11C19 14.9 15.9 18 12 18C8.1 18 5 14.9 5 11C5 7.1 8.1 4 12 4ZM12 2C7 2 3 6 3 11C3 16 7 20 12 20C17 20 21 16 21 11C21 6 17 2 12 2Z" fill="white"/>
<path d="M11.9 15.8C11.7 15.8 11.6 15.8 11.4 15.7C10.9 15.4 10.7 14.8 11 14.3L15 7.2C15.3 6.7 15.9 6.5 16.4 6.8C16.9 7.1 17.1 7.7 16.8 8.2L12.8 15.3C12.5 15.6 12.2 15.8 11.9 15.8Z" fill="white"/>
<path d="M12 22.4C11.4 22.4 11 22 11 21.4V20C11 19.4 11.4 19 12 19C12.6 19 13 19.4 13 20V21.4C13 22 12.6 22.4 12 22.4Z" fill="white"/>
<path d="M7.39999 17.8C8.69999 16.7 10.3 16 12.1 16C13.6 16 15.1 16.5 16.2 17.4L17.7 16C16.2 14.8 14.2 14 12.1 14C9.69999 14 7.59999 14.9 5.89999 16.4L7.39999 17.8Z" fill="white"/>
</g>
<defs>
<clipPath id="clip0">
<rect x="3" y="2" width="18" height="20" fill="white"/>
</clipPath>
</defs>
</svg>
