<svg width="24" height="24" viewBox="0 0 24 24" fill="none" xmlns="http://www.w3.org/2000/svg">
<path fill-rule="evenodd" clip-rule="evenodd" d="M3.02304 3.69542C3.16973 2.73541 3.99898 2 5 2H19C19.9665 2 20.7729 2.68556 20.9594 3.59693C20.986 3.72713 21 3.86193 21 4V17C21 18.1046 20.1046 19 19 19H17V22H15V19H13V22H11V19H9V22H7V19H5C3.98052 19 3.13919 18.2372 3.01563 17.2512C3.00845 17.194 3.0037 17.136 3.00147 17.0773C3.00049 17.0517 3 17.0259 3 17V4V4C3 3.89644 3.00787 3.79473 3.02304 3.69542ZM5 4L5 17H7H9H11H13H15H17L19 17V4H5Z" fill="white"/>
</svg>
