<svg width="24" height="24" viewBox="0 0 24 24" fill="none" xmlns="http://www.w3.org/2000/svg">
<path fill-rule="evenodd" clip-rule="evenodd" d="M21.4 11.6L12.4 2.6C12.1 2.2 11.6 2 11 2H4C2.9 2 2 2.9 2 4V11C2 11.6 2.2 12.1 2.6 12.4L11.6 21.4C11.9 21.8 12.4 22 13 22C13.6 22 14.1 21.8 14.4 21.4L21.4 14.4C21.8 14 22 13.5 22 13C22 12.5 21.8 11.9 21.4 11.6ZM13 20L4 11V4H11L20 13L13 20ZM5 6.5C5 5.7 5.7 5 6.5 5C7.3 5 8 5.7 8 6.5C8 7.3 7.3 8 6.5 8C5.7 8 5 7.3 5 6.5Z" fill="white"/>
<path d="M18.2 12.3L16.8 13.7L15.3 12.2L13.6 10.3L14.4 13.3L13.5 14.2L10.5 13.5L12.3 15.1L13.8 16.6L12.4 18L6.7 12.3L8.2 10.8L12 12L10.9 8.10001L12.4 6.60001L18.2 12.3Z" fill="white"/>
</svg>
