<svg width="24" height="24" viewBox="0 0 24 24" fill="none" xmlns="http://www.w3.org/2000/svg">
<path d="M14.1 20C13.5 20 13 19.6 12.9 19L11.7 10.5L11 14.5C10.9 15 10.5 15.4 9.9 15.5C9.4 15.5 8.9 15.2 8.7 14.7L8.3 13.7L7.9 16H2C1.4 16 1 15.6 1 15C1 14.4 1.4 14 2 14H6.2L6.8 10.4C6.9 9.9 7.3 9.5 7.9 9.4C8.4 9.4 8.9 9.7 9.1 10.2L9.5 11.2L10.6 5C10.7 4.4 11.2 4 11.8 4C12.4 4 12.9 4.4 13 5L14.2 13.4L15 8.7C15.1 8.1 15.5 7.7 16.1 7.7C16.7 7.7 17.2 8 17.3 8.6L18.8 14.1H22C22.6 14.1 23 14.5 23 15.1C23 15.7 22.6 16.1 22 16.1H17.2L16.2 12.7L15.2 19.1C15.1 19.6 14.6 20 14.1 20Z" fill="white"/>
</svg>
