<svg width="24" height="24" viewBox="0 0 24 24" fill="none" xmlns="http://www.w3.org/2000/svg">
<g clip-path="url(#clip0)">
<path d="M14.6558 12.2385L16.4582 11.6089C15.2089 8.04077 12.4339 7.62099 12.3099 7.60191L12.0334 9.4909C12.1097 9.50044 13.8071 9.81527 14.6558 12.2385Z" fill="white"/>
<path d="M12.844 4.26279L12.3481 6.10407C12.4911 6.14223 15.9337 7.14397 17.9744 11.7519L19.7195 10.9792C17.2974 5.49349 13.0251 4.31049 12.844 4.26279Z" fill="white"/>
<path d="M13.1682 1L12.5197 2.79358C12.5769 2.81266 18.4798 4.9974 21.2358 11.7329L23 11.0078C19.9198 3.49957 13.4352 1.0954 13.1682 1Z" fill="white"/>
<path d="M12.7486 15.32C12.8821 14.9766 12.9679 14.6141 12.9679 14.2229C12.9679 12.4866 11.5566 11.0841 9.83051 11.0841C9.42046 11.0841 9.01993 11.1605 8.65756 11.3131L4.40442 7.13443C4.17555 6.90547 3.88946 6.80052 3.59384 6.80052C3.22193 6.80052 2.85002 6.98179 2.62115 7.3157C0.160811 10.9029 0.408752 16.5984 4.0039 20.1188C5.99696 22.0746 8.63849 22.9905 11.1942 22.9905C13.254 22.9905 15.2566 22.399 16.8396 21.2732C17.4309 20.8534 17.5071 19.9948 16.9922 19.4796L12.7486 15.32ZM11.1942 21.0919C8.94364 21.0919 6.86476 20.2619 5.33896 18.7641C2.56393 16.0451 2.38274 11.8855 3.74642 9.15698L7.78023 13.1162L8.63849 13.9653C8.76246 13.412 9.22973 12.9827 9.82098 12.9827C10.498 12.9827 11.0511 13.536 11.0511 14.2134C11.0511 14.7953 10.6411 15.2628 10.0975 15.3964L11.5566 16.8369L14.9705 20.1856C13.8739 20.7676 12.5579 21.0919 11.1942 21.0919Z" fill="white"/>
</g>
<defs>
<clipPath id="clip0">
<rect x="1" y="1" width="22" height="22" fill="white"/>
</clipPath>
</defs>
</svg>
